<mxfile host="65bd71144e">
    <diagram id="nn8O0DxA68UYDRX-QcxZ" name="Page-1">
        <mxGraphModel dx="990" dy="575" grid="1" gridSize="10" guides="1" tooltips="1" connect="1" arrows="1" fold="1" page="1" pageScale="1" pageWidth="1100" pageHeight="850" math="0" shadow="0">
            <root>
                <mxCell id="0"/>
                <mxCell id="1" parent="0"/>
                <mxCell id="2" value="&lt;font style=&quot;font-size: 20px&quot;&gt;more chats appear here when occur&lt;/font&gt;" style="text;html=1;strokeColor=#6c8ebf;fillColor=#dae8fc;align=center;verticalAlign=middle;whiteSpace=wrap;rounded=0;gradientColor=#7ea6e0;fontStyle=1;fontColor=#000000;" vertex="1" parent="1">
                    <mxGeometry x="120" y="296" width="160" height="344" as="geometry"/>
                </mxCell>
                <mxCell id="3" value="&lt;span style=&quot;font-size: 20px&quot;&gt;more jobs appear here when hired&lt;/span&gt;" style="text;html=1;strokeColor=#6c8ebf;fillColor=#dae8fc;align=center;verticalAlign=middle;whiteSpace=wrap;rounded=0;gradientColor=#7ea6e0;fontStyle=1;fontColor=#000000;" vertex="1" parent="1">
                    <mxGeometry x="640" y="284" width="160" height="356" as="geometry"/>
                </mxCell>
                <mxCell id="4" value="" style="endArrow=none;html=1;fillColor=#dae8fc;strokeColor=#6c8ebf;gradientColor=#7ea6e0;fontStyle=1;fontColor=#000000;" edge="1" parent="1">
                    <mxGeometry width="50" height="50" relative="1" as="geometry">
                        <mxPoint x="120" y="640" as="sourcePoint"/>
                        <mxPoint x="120" y="130" as="targetPoint"/>
                    </mxGeometry>
                </mxCell>
                <mxCell id="5" value="" style="endArrow=none;html=1;fillColor=#dae8fc;strokeColor=#6c8ebf;gradientColor=#7ea6e0;fontStyle=1;fontColor=#000000;" edge="1" parent="1">
                    <mxGeometry width="50" height="50" relative="1" as="geometry">
                        <mxPoint x="800" y="640" as="sourcePoint"/>
                        <mxPoint x="800" y="130" as="targetPoint"/>
                    </mxGeometry>
                </mxCell>
                <mxCell id="6" value="" style="endArrow=none;html=1;fillColor=#dae8fc;strokeColor=#6c8ebf;gradientColor=#7ea6e0;fontStyle=1;fontColor=#000000;" edge="1" parent="1">
                    <mxGeometry width="50" height="50" relative="1" as="geometry">
                        <mxPoint x="120" y="640" as="sourcePoint"/>
                        <mxPoint x="800" y="640" as="targetPoint"/>
                    </mxGeometry>
                </mxCell>
                <mxCell id="7" value="" style="endArrow=none;html=1;fillColor=#dae8fc;strokeColor=#6c8ebf;gradientColor=#7ea6e0;fontStyle=1;fontColor=#000000;" edge="1" parent="1">
                    <mxGeometry width="50" height="50" relative="1" as="geometry">
                        <mxPoint x="800" y="130" as="sourcePoint"/>
                        <mxPoint x="120" y="130" as="targetPoint"/>
                    </mxGeometry>
                </mxCell>
                <mxCell id="8" value="" style="endArrow=none;html=1;fillColor=#dae8fc;strokeColor=#6c8ebf;gradientColor=#7ea6e0;fontStyle=1;fontColor=#000000;" edge="1" parent="1">
                    <mxGeometry width="50" height="50" relative="1" as="geometry">
                        <mxPoint x="800" y="180" as="sourcePoint"/>
                        <mxPoint x="120" y="180" as="targetPoint"/>
                    </mxGeometry>
                </mxCell>
                <mxCell id="9" value="" style="swimlane;fontStyle=1;childLayout=stackLayout;horizontal=1;startSize=26;horizontalStack=0;resizeParent=1;resizeParentMax=0;resizeLast=0;collapsible=1;marginBottom=0;fillColor=#dae8fc;strokeColor=#6c8ebf;gradientColor=#7ea6e0;fontColor=#000000;align=center;" vertex="1" parent="1">
<<<<<<< HEAD
                    <mxGeometry x="280" y="180" width="360" height="220" as="geometry"/>
=======
                    <mxGeometry x="280" y="220" width="360" height="420" as="geometry"/>
>>>>>>> b911916db8fc0dc9afbdc269ecf42104405b524d
                </mxCell>
                <mxCell id="10" value="                             User Name&#10;                             Success Rate&#10;                             Reviews *********&#10;                             Available in 3 hours&#10;                             Rate: $35 hr&#10;                             Skill: Laborer" style="text;strokeColor=#6c8ebf;fillColor=#dae8fc;align=left;verticalAlign=top;spacingLeft=4;spacingRight=4;overflow=hidden;rotatable=0;points=[[0,0.5],[1,0.5]];portConstraint=eastwest;gradientColor=#7ea6e0;fontStyle=1;fontColor=#000000;" vertex="1" parent="9">
                    <mxGeometry y="26" width="360" height="134" as="geometry"/>
                </mxCell>
<<<<<<< HEAD
                <mxCell id="11" value="Jobs" style="text;strokeColor=#6c8ebf;fillColor=#dae8fc;align=left;verticalAlign=top;spacingLeft=4;spacingRight=4;overflow=hidden;rotatable=0;points=[[0,0.5],[1,0.5]];portConstraint=eastwest;gradientColor=#7ea6e0;fontStyle=1;fontColor=#000000;" vertex="1" parent="9">
                    <mxGeometry y="160" width="360" height="30" as="geometry"/>
                </mxCell>
                <mxCell id="12" value="Projects" style="text;strokeColor=#6c8ebf;fillColor=#dae8fc;align=left;verticalAlign=top;spacingLeft=4;spacingRight=4;overflow=hidden;rotatable=0;points=[[0,0.5],[1,0.5]];portConstraint=eastwest;gradientColor=#7ea6e0;fontStyle=1;fontColor=#000000;" vertex="1" parent="9">
                    <mxGeometry y="190" width="360" height="30" as="geometry"/>
=======
                <mxCell id="11" value="                             User Name&#10;                             Success Rate&#10;                             Reviews *********&#10;                             Available in 3 hours&#10;                             Rate: $35 hr&#10;                             Skill: Laborer" style="text;strokeColor=#6c8ebf;fillColor=#dae8fc;align=left;verticalAlign=top;spacingLeft=4;spacingRight=4;overflow=hidden;rotatable=0;points=[[0,0.5],[1,0.5]];portConstraint=eastwest;gradientColor=#7ea6e0;fontStyle=1;fontColor=#000000;" vertex="1" parent="9">
                    <mxGeometry y="160" width="360" height="150" as="geometry"/>
                </mxCell>
                <mxCell id="12" value="                             User Name&#10;                             Success Rate&#10;                             Reviews *********&#10;                             Available in 3 hours&#10;                             Rate: $35 hr&#10;                             Skill: Laborer" style="text;strokeColor=#6c8ebf;fillColor=#dae8fc;align=left;verticalAlign=top;spacingLeft=4;spacingRight=4;overflow=hidden;rotatable=0;points=[[0,0.5],[1,0.5]];portConstraint=eastwest;gradientColor=#7ea6e0;fontStyle=1;fontColor=#000000;" vertex="1" parent="9">
                    <mxGeometry y="310" width="360" height="110" as="geometry"/>
>>>>>>> b911916db8fc0dc9afbdc269ecf42104405b524d
                </mxCell>
                <mxCell id="13" value="Chat" style="swimlane;fontStyle=1;childLayout=stackLayout;horizontal=1;startSize=26;horizontalStack=0;resizeParent=1;resizeParentMax=0;resizeLast=0;collapsible=1;marginBottom=0;align=center;fillColor=#dae8fc;strokeColor=#6c8ebf;gradientColor=#7ea6e0;fontColor=#000000;" vertex="1" parent="1">
                    <mxGeometry x="120" y="180" width="160" height="170" as="geometry"/>
                </mxCell>
                <mxCell id="14" value="             Chat message&#10;             Time" style="text;strokeColor=#6c8ebf;fillColor=#dae8fc;align=left;verticalAlign=top;spacingLeft=4;spacingRight=4;overflow=hidden;rotatable=0;points=[[0,0.5],[1,0.5]];portConstraint=eastwest;gradientColor=#7ea6e0;fontStyle=1;fontColor=#000000;" vertex="1" parent="13">
                    <mxGeometry y="26" width="160" height="44" as="geometry"/>
                </mxCell>
                <mxCell id="15" value="             Chat message&#10;             Time" style="text;strokeColor=#6c8ebf;fillColor=#dae8fc;align=left;verticalAlign=top;spacingLeft=4;spacingRight=4;overflow=hidden;rotatable=0;points=[[0,0.5],[1,0.5]];portConstraint=eastwest;gradientColor=#7ea6e0;fontStyle=1;fontColor=#000000;" vertex="1" parent="13">
                    <mxGeometry y="70" width="160" height="50" as="geometry"/>
                </mxCell>
                <mxCell id="16" value="             Chat message&#10;             Time" style="text;strokeColor=#6c8ebf;fillColor=#dae8fc;align=left;verticalAlign=top;spacingLeft=4;spacingRight=4;overflow=hidden;rotatable=0;points=[[0,0.5],[1,0.5]];portConstraint=eastwest;gradientColor=#7ea6e0;fontStyle=1;fontColor=#000000;" vertex="1" parent="13">
                    <mxGeometry y="120" width="160" height="50" as="geometry"/>
                </mxCell>
                <mxCell id="17" value="&lt;font style=&quot;font-size: 20px&quot;&gt;Wurklo&lt;/font&gt;" style="text;html=1;strokeColor=#6c8ebf;fillColor=#dae8fc;align=center;verticalAlign=middle;whiteSpace=wrap;rounded=0;gradientColor=#7ea6e0;fontStyle=1;fontColor=#000000;" vertex="1" parent="1">
                    <mxGeometry x="120" y="130" width="160" height="50" as="geometry"/>
                </mxCell>
                <mxCell id="18" value="Schedule" style="swimlane;fontStyle=1;childLayout=stackLayout;horizontal=1;startSize=26;horizontalStack=0;resizeParent=1;resizeParentMax=0;resizeLast=0;collapsible=1;marginBottom=0;align=center;fillColor=#dae8fc;strokeColor=#6c8ebf;gradientColor=#7ea6e0;fontColor=#000000;" vertex="1" parent="1">
                    <mxGeometry x="640" y="180" width="160" height="170" as="geometry"/>
                </mxCell>
                <mxCell id="19" value="Job name&#10;Time" style="text;strokeColor=#6c8ebf;fillColor=#dae8fc;align=center;verticalAlign=top;spacingLeft=4;spacingRight=4;overflow=hidden;rotatable=0;points=[[0,0.5],[1,0.5]];portConstraint=eastwest;gradientColor=#7ea6e0;fontStyle=1;fontColor=#000000;" vertex="1" parent="18">
                    <mxGeometry y="26" width="160" height="44" as="geometry"/>
                </mxCell>
                <mxCell id="20" value="Job name&#10;Time" style="text;strokeColor=#6c8ebf;fillColor=#dae8fc;align=center;verticalAlign=top;spacingLeft=4;spacingRight=4;overflow=hidden;rotatable=0;points=[[0,0.5],[1,0.5]];portConstraint=eastwest;gradientColor=#7ea6e0;fontStyle=1;fontColor=#000000;" vertex="1" parent="18">
                    <mxGeometry y="70" width="160" height="50" as="geometry"/>
                </mxCell>
                <mxCell id="21" value="Job name&#10;Time" style="text;strokeColor=#6c8ebf;fillColor=#dae8fc;align=center;verticalAlign=top;spacingLeft=4;spacingRight=4;overflow=hidden;rotatable=0;points=[[0,0.5],[1,0.5]];portConstraint=eastwest;gradientColor=#7ea6e0;fontStyle=1;fontColor=#000000;" vertex="1" parent="18">
                    <mxGeometry y="120" width="160" height="50" as="geometry"/>
                </mxCell>
                <mxCell id="22" value="&amp;nbsp; &amp;nbsp; &amp;nbsp; User name" style="text;html=1;strokeColor=#6c8ebf;fillColor=#dae8fc;align=center;verticalAlign=middle;whiteSpace=wrap;rounded=0;gradientColor=#7ea6e0;fontStyle=1;fontColor=#000000;" vertex="1" parent="1">
                    <mxGeometry x="640" y="130" width="160" height="50" as="geometry"/>
                </mxCell>
                <mxCell id="23" value="Home Icon" style="rounded=1;whiteSpace=wrap;html=1;align=center;fillColor=#dae8fc;strokeColor=#6c8ebf;fontStyle=1;gradientColor=#7ea6e0;fontColor=#000000;" vertex="1" parent="1">
                    <mxGeometry x="280" y="130" width="90" height="50" as="geometry"/>
                </mxCell>
<<<<<<< HEAD
                <mxCell id="24" value="Profile Icon" style="rounded=1;whiteSpace=wrap;html=1;align=center;fillColor=#dae8fc;strokeColor=#6c8ebf;fontStyle=1;fontColor=#000000;gradientColor=#19E083;" vertex="1" parent="1">
                    <mxGeometry x="370" y="130" width="80" height="50" as="geometry"/>
                </mxCell>
                <mxCell id="25" value="Search Wurkers Icon" style="rounded=1;whiteSpace=wrap;html=1;align=center;fillColor=#dae8fc;strokeColor=#6c8ebf;fontStyle=1;gradientColor=#7ea6e0;fontColor=#000000;" vertex="1" parent="1">
=======
                <mxCell id="24" value="Profile Icon" style="rounded=1;whiteSpace=wrap;html=1;align=center;fillColor=#dae8fc;strokeColor=#6c8ebf;fontStyle=1;gradientColor=#7ea6e0;fontColor=#000000;" vertex="1" parent="1">
                    <mxGeometry x="370" y="130" width="80" height="50" as="geometry"/>
                </mxCell>
                <mxCell id="25" value="Search Wurkers Icon" style="rounded=1;whiteSpace=wrap;html=1;align=center;fillColor=#dae8fc;strokeColor=#6c8ebf;fontStyle=1;fontColor=#000000;gradientColor=#19E083;" vertex="1" parent="1">
>>>>>>> b911916db8fc0dc9afbdc269ecf42104405b524d
                    <mxGeometry x="450" y="130" width="90" height="50" as="geometry"/>
                </mxCell>
                <mxCell id="26" value="Search Projects Icon" style="rounded=1;whiteSpace=wrap;html=1;align=center;fillColor=#dae8fc;strokeColor=#6c8ebf;gradientColor=#7ea6e0;fontStyle=1;fontColor=#000000;" vertex="1" parent="1">
                    <mxGeometry x="540" y="130" width="100" height="50" as="geometry"/>
                </mxCell>
                <mxCell id="27" value="user" style="ellipse;whiteSpace=wrap;html=1;aspect=fixed;fillColor=#dae8fc;strokeColor=#6c8ebf;gradientColor=#7ea6e0;fontStyle=1;fontColor=#000000;" vertex="1" parent="1">
                    <mxGeometry x="650" y="135" width="40" height="40" as="geometry"/>
                </mxCell>
                <mxCell id="28" value="user" style="ellipse;whiteSpace=wrap;html=1;aspect=fixed;fillColor=#dae8fc;strokeColor=#6c8ebf;gradientColor=#7ea6e0;fontStyle=1;fontColor=#000000;" vertex="1" parent="1">
                    <mxGeometry x="643" y="208" width="40" height="40" as="geometry"/>
                </mxCell>
                <mxCell id="29" value="user" style="ellipse;whiteSpace=wrap;html=1;aspect=fixed;fillColor=#dae8fc;strokeColor=#6c8ebf;gradientColor=#7ea6e0;fontStyle=1;fontColor=#000000;" vertex="1" parent="1">
                    <mxGeometry x="643" y="254" width="40" height="40" as="geometry"/>
                </mxCell>
                <mxCell id="30" value="user" style="ellipse;whiteSpace=wrap;html=1;aspect=fixed;fillColor=#dae8fc;strokeColor=#6c8ebf;gradientColor=#7ea6e0;fontStyle=1;fontColor=#000000;" vertex="1" parent="1">
                    <mxGeometry x="644" y="304" width="40" height="40" as="geometry"/>
                </mxCell>
                <mxCell id="31" value="user" style="ellipse;whiteSpace=wrap;html=1;aspect=fixed;fillColor=#dae8fc;strokeColor=#6c8ebf;gradientColor=#7ea6e0;fontStyle=1;fontColor=#000000;" vertex="1" parent="1">
                    <mxGeometry x="124" y="208" width="40" height="40" as="geometry"/>
                </mxCell>
                <mxCell id="32" value="user" style="ellipse;whiteSpace=wrap;html=1;aspect=fixed;fillColor=#dae8fc;strokeColor=#6c8ebf;gradientColor=#7ea6e0;fontStyle=1;fontColor=#000000;" vertex="1" parent="1">
                    <mxGeometry x="124" y="254" width="40" height="40" as="geometry"/>
                </mxCell>
                <mxCell id="33" value="user" style="ellipse;whiteSpace=wrap;html=1;aspect=fixed;fillColor=#dae8fc;strokeColor=#6c8ebf;gradientColor=#7ea6e0;fontStyle=1;fontColor=#000000;" vertex="1" parent="1">
                    <mxGeometry x="124" y="305" width="40" height="40" as="geometry"/>
                </mxCell>
                <mxCell id="34" value="" style="rounded=1;whiteSpace=wrap;html=1;fontColor=#000000;gradientColor=#19E083;align=left;" vertex="1" parent="1">
<<<<<<< HEAD
                    <mxGeometry x="280" y="207" width="100" height="133" as="geometry"/>
                </mxCell>
                <mxCell id="35" value="" style="shape=actor;whiteSpace=wrap;html=1;fontColor=#000000;gradientColor=#19E083;align=left;" vertex="1" parent="1">
                    <mxGeometry x="290" y="220" width="80" height="110" as="geometry"/>
                </mxCell>
                <mxCell id="42" value="Associates" style="text;strokeColor=#6c8ebf;fillColor=#dae8fc;align=left;verticalAlign=top;spacingLeft=4;spacingRight=4;overflow=hidden;rotatable=0;points=[[0,0.5],[1,0.5]];portConstraint=eastwest;gradientColor=#7ea6e0;fontStyle=1;fontColor=#000000;" vertex="1" parent="1">
                    <mxGeometry x="280" y="400" width="360" height="30" as="geometry"/>
                </mxCell>
                <mxCell id="43" value="Schedule" style="text;strokeColor=#6c8ebf;fillColor=#dae8fc;align=left;verticalAlign=top;spacingLeft=4;spacingRight=4;overflow=hidden;rotatable=0;points=[[0,0.5],[1,0.5]];portConstraint=eastwest;gradientColor=#7ea6e0;fontStyle=1;fontColor=#000000;" vertex="1" parent="1">
                    <mxGeometry x="280" y="430" width="360" height="30" as="geometry"/>
                </mxCell>
                <mxCell id="44" value="Chat" style="text;strokeColor=#6c8ebf;fillColor=#dae8fc;align=left;verticalAlign=top;spacingLeft=4;spacingRight=4;overflow=hidden;rotatable=0;points=[[0,0.5],[1,0.5]];portConstraint=eastwest;gradientColor=#7ea6e0;fontStyle=1;fontColor=#000000;" vertex="1" parent="1">
                    <mxGeometry x="280" y="460" width="360" height="30" as="geometry"/>
                </mxCell>
                <mxCell id="45" value="Mentor" style="text;strokeColor=#6c8ebf;fillColor=#dae8fc;align=left;verticalAlign=top;spacingLeft=4;spacingRight=4;overflow=hidden;rotatable=0;points=[[0,0.5],[1,0.5]];portConstraint=eastwest;gradientColor=#7ea6e0;fontStyle=1;fontColor=#000000;" vertex="1" parent="1">
                    <mxGeometry x="280" y="490" width="360" height="30" as="geometry"/>
                </mxCell>
                <mxCell id="46" value="Legal" style="text;strokeColor=#6c8ebf;fillColor=#dae8fc;align=left;verticalAlign=top;spacingLeft=4;spacingRight=4;overflow=hidden;rotatable=0;points=[[0,0.5],[1,0.5]];portConstraint=eastwest;gradientColor=#7ea6e0;fontStyle=1;fontColor=#000000;" vertex="1" parent="1">
                    <mxGeometry x="280" y="520" width="360" height="30" as="geometry"/>
                </mxCell>
                <mxCell id="47" value="Accounting" style="text;strokeColor=#6c8ebf;fillColor=#dae8fc;align=left;verticalAlign=top;spacingLeft=4;spacingRight=4;overflow=hidden;rotatable=0;points=[[0,0.5],[1,0.5]];portConstraint=eastwest;gradientColor=#7ea6e0;fontStyle=1;fontColor=#000000;" vertex="1" parent="1">
                    <mxGeometry x="280" y="550" width="360" height="30" as="geometry"/>
                </mxCell>
                <mxCell id="48" value="Insurance" style="text;strokeColor=#6c8ebf;fillColor=#dae8fc;align=left;verticalAlign=top;spacingLeft=4;spacingRight=4;overflow=hidden;rotatable=0;points=[[0,0.5],[1,0.5]];portConstraint=eastwest;gradientColor=#7ea6e0;fontStyle=1;fontColor=#000000;" vertex="1" parent="1">
                    <mxGeometry x="280" y="580" width="360" height="30" as="geometry"/>
                </mxCell>
                <mxCell id="49" value="Marketing" style="text;strokeColor=#6c8ebf;fillColor=#dae8fc;align=left;verticalAlign=top;spacingLeft=4;spacingRight=4;overflow=hidden;rotatable=0;points=[[0,0.5],[1,0.5]];portConstraint=eastwest;gradientColor=#7ea6e0;fontStyle=1;fontColor=#000000;" vertex="1" parent="1">
                    <mxGeometry x="280" y="610" width="360" height="30" as="geometry"/>
=======
                    <mxGeometry x="280" y="247" width="100" height="133" as="geometry"/>
                </mxCell>
                <mxCell id="35" value="" style="shape=actor;whiteSpace=wrap;html=1;fontColor=#000000;gradientColor=#19E083;align=left;" vertex="1" parent="1">
                    <mxGeometry x="290" y="260" width="80" height="110" as="geometry"/>
                </mxCell>
                <mxCell id="36" value="" style="rounded=1;whiteSpace=wrap;html=1;fontColor=#000000;gradientColor=#19E083;align=left;" vertex="1" parent="1">
                    <mxGeometry x="280" y="380" width="100" height="150" as="geometry"/>
                </mxCell>
                <mxCell id="37" value="" style="shape=actor;whiteSpace=wrap;html=1;fontColor=#000000;gradientColor=#19E083;align=left;" vertex="1" parent="1">
                    <mxGeometry x="290" y="390" width="80" height="130" as="geometry"/>
                </mxCell>
                <mxCell id="38" value="" style="rounded=1;whiteSpace=wrap;html=1;fontColor=#000000;gradientColor=#19E083;align=left;" vertex="1" parent="1">
                    <mxGeometry x="280" y="530" width="100" height="110" as="geometry"/>
                </mxCell>
                <mxCell id="39" value="" style="shape=actor;whiteSpace=wrap;html=1;fontColor=#000000;gradientColor=#19E083;align=left;" vertex="1" parent="1">
                    <mxGeometry x="290" y="540" width="80" height="100" as="geometry"/>
                </mxCell>
                <mxCell id="40" value="" style="rounded=0;whiteSpace=wrap;html=1;gradientColor=#7ea6e0;fillColor=#dae8fc;strokeColor=#6c8ebf;" vertex="1" parent="1">
                    <mxGeometry x="280" y="180" width="360" height="40" as="geometry"/>
                </mxCell>
                <mxCell id="41" value="&lt;font style=&quot;font-size: 12px&quot; color=&quot;#000000&quot;&gt;&lt;b&gt;Type wurker skill, name, or now ...&lt;/b&gt;&lt;/font&gt;" style="rounded=1;whiteSpace=wrap;html=1;gradientColor=#7ea6e0;fillColor=#dae8fc;strokeColor=#6c8ebf;align=left;" vertex="1" parent="1">
                    <mxGeometry x="290" y="185" width="340" height="30" as="geometry"/>
>>>>>>> b911916db8fc0dc9afbdc269ecf42104405b524d
                </mxCell>
            </root>
        </mxGraphModel>
    </diagram>
</mxfile>